<svg width="1200" height="760" viewBox="0 0 1200 760" fill="none" xmlns="http://www.w3.org/2000/svg">
  <rect width="1200" height="760" fill="#F5F7FA"/>
  <defs>
    <filter id="shadow2" x="0" y="0" width="1200" height="760" filterUnits="userSpaceOnUse" color-interpolation-filters="sRGB">
      <feDropShadow dx="0" dy="14" stdDeviation="20" flood-color="#1D3557" flood-opacity="0.12"/>
    </filter>
  </defs>
  <text x="92" y="88" fill="#13324D" font-family="Segoe UI, Arial, sans-serif" font-size="34" font-weight="700">SharePoint Archival Flow</text>
  <text x="92" y="126" fill="#5B6B7F" font-family="Segoe UI, Arial, sans-serif" font-size="19">Mock illustration of list-item based HTML snapshot creation</text>
  <g filter="url(#shadow2)">
    <rect x="126" y="182" width="440" height="120" rx="18" fill="#FFFFFF"/>
    <rect x="126" y="182" width="14" height="120" rx="7" fill="#1F2937"/>
    <rect x="166" y="216" width="54" height="54" rx="14" fill="#56A6A6"/>
    <text x="246" y="237" fill="#16324F" font-family="Segoe UI, Arial, sans-serif" font-size="26" font-weight="700">When an item is created</text>
    <text x="246" y="270" fill="#5B6B7F" font-family="Segoe UI, Arial, sans-serif" font-size="18">Trigger: SharePoint List / Applications</text>

    <rect x="126" y="390" width="440" height="120" rx="18" fill="#FFFFFF"/>
    <rect x="126" y="390" width="14" height="120" rx="7" fill="#1F2937"/>
    <rect x="166" y="424" width="54" height="54" rx="14" fill="#56A6A6"/>
    <text x="246" y="445" fill="#16324F" font-family="Segoe UI, Arial, sans-serif" font-size="26" font-weight="700">Create file</text>
    <text x="246" y="478" fill="#5B6B7F" font-family="Segoe UI, Arial, sans-serif" font-size="18">Output: candidate-summary-[ID].html</text>
  </g>
  <path d="M346 302V390" stroke="#97A3B3" stroke-width="6" stroke-linecap="round"/>
  <path d="M346 370L330 354" stroke="#97A3B3" stroke-width="6" stroke-linecap="round"/>
  <path d="M346 370L362 354" stroke="#97A3B3" stroke-width="6" stroke-linecap="round"/>

  <rect x="668" y="180" width="410" height="360" rx="24" fill="#E9F1FB"/>
  <rect x="712" y="226" width="180" height="224" rx="18" fill="#FFFFFF"/>
  <path d="M748 270H856" stroke="#9FB0C2" stroke-width="8" stroke-linecap="round"/>
  <path d="M748 310H856" stroke="#9FB0C2" stroke-width="8" stroke-linecap="round"/>
  <path d="M748 350H826" stroke="#9FB0C2" stroke-width="8" stroke-linecap="round"/>
  <path d="M748 390H846" stroke="#9FB0C2" stroke-width="8" stroke-linecap="round"/>
  <text x="900" y="276" fill="#16324F" font-family="Segoe UI, Arial, sans-serif" font-size="24" font-weight="700">Archive File</text>
  <text x="900" y="318" fill="#5B6B7F" font-family="Consolas, monospace" font-size="16">candidate-summary-XXXX.html</text>
  <text x="900" y="364" fill="#5B6B7F" font-family="Segoe UI, Arial, sans-serif" font-size="17">Generated from a sanitized</text>
  <text x="900" y="392" fill="#5B6B7F" font-family="Segoe UI, Arial, sans-serif" font-size="17">SharePoint List record.</text>
  <text x="900" y="446" fill="#48617A" font-family="Segoe UI, Arial, sans-serif" font-size="16">Fields shown in the public case</text>
  <text x="900" y="472" fill="#48617A" font-family="Segoe UI, Arial, sans-serif" font-size="16">study should stay masked</text>
  <text x="900" y="498" fill="#48617A" font-family="Segoe UI, Arial, sans-serif" font-size="16">or generic.</text>
</svg>
