<svg width="1200" height="760" viewBox="0 0 1200 760" fill="none" xmlns="http://www.w3.org/2000/svg">
  <rect width="1200" height="760" fill="#F4F6FB"/>
  <defs>
    <filter id="shadow4" x="0" y="0" width="1200" height="760" filterUnits="userSpaceOnUse" color-interpolation-filters="sRGB">
      <feDropShadow dx="0" dy="14" stdDeviation="20" flood-color="#22324A" flood-opacity="0.12"/>
    </filter>
  </defs>
  <text x="92" y="88" fill="#13324D" font-family="Segoe UI, Arial, sans-serif" font-size="34" font-weight="700">Completion Notification Flow</text>
  <text x="92" y="126" fill="#5B6B7F" font-family="Segoe UI, Arial, sans-serif" font-size="19">Mock Teams notification triggered by Planner task completion</text>
  <g filter="url(#shadow4)">
    <rect x="132" y="184" width="454" height="124" rx="18" fill="#FFFFFF"/>
    <rect x="132" y="184" width="14" height="124" rx="7" fill="#1F2937"/>
    <rect x="172" y="220" width="54" height="54" rx="16" fill="#7B6EF6"/>
    <text x="254" y="242" fill="#16324F" font-family="Segoe UI, Arial, sans-serif" font-size="28" font-weight="700">When a task is completed</text>
    <text x="254" y="278" fill="#5B6B7F" font-family="Segoe UI, Arial, sans-serif" font-size="18">Source: Microsoft Planner</text>

    <rect x="132" y="408" width="454" height="124" rx="18" fill="#FFFFFF"/>
    <rect x="132" y="408" width="14" height="124" rx="7" fill="#1F2937"/>
    <rect x="172" y="444" width="54" height="54" rx="16" fill="#6F8DFF"/>
    <text x="254" y="458" fill="#16324F" font-family="Segoe UI, Arial, sans-serif" font-size="25" font-weight="700">Post message in a</text>
    <text x="254" y="490" fill="#16324F" font-family="Segoe UI, Arial, sans-serif" font-size="25" font-weight="700">chat or channel</text>
    <text x="254" y="524" fill="#5B6B7F" font-family="Segoe UI, Arial, sans-serif" font-size="18">Recipient: HR operations team</text>
  </g>
  <path d="M360 308V408" stroke="#98A5B3" stroke-width="6" stroke-linecap="round"/>
  <path d="M360 388L344 372" stroke="#98A5B3" stroke-width="6" stroke-linecap="round"/>
  <path d="M360 388L376 372" stroke="#98A5B3" stroke-width="6" stroke-linecap="round"/>

  <rect x="682" y="200" width="392" height="330" rx="26" fill="#FFFFFF" stroke="#D7E0EA" stroke-width="2"/>
  <rect x="682" y="200" width="392" height="76" rx="26" fill="#EEF3FA"/>
  <text x="724" y="248" fill="#16324F" font-family="Segoe UI, Arial, sans-serif" font-size="24" font-weight="700">Teams message preview</text>
  <rect x="720" y="308" width="318" height="174" rx="18" fill="#F6F9FC"/>
  <text x="748" y="352" fill="#16324F" font-family="Segoe UI, Arial, sans-serif" font-size="20" font-weight="700">Candidate review completed</text>
  <text x="748" y="392" fill="#5B6B7F" font-family="Segoe UI, Arial, sans-serif" font-size="18">Result: Approved</text>
  <text x="748" y="424" fill="#5B6B7F" font-family="Segoe UI, Arial, sans-serif" font-size="18">Record: CAND-XXXX</text>
  <text x="748" y="456" fill="#5B6B7F" font-family="Segoe UI, Arial, sans-serif" font-size="18">Next step: HR follow-up</text>
  <rect x="748" y="496" width="118" height="34" rx="10" fill="#E5F3EA"/>
  <text x="774" y="519" fill="#2D5B43" font-family="Segoe UI, Arial, sans-serif" font-size="17">Approved</text>
</svg>
